<?xml version='1.0' encoding='utf-8'?>
<svg xmlns="http://www.w3.org/2000/svg" width="1200" height="790" viewBox="0 0 1200 790"><rect width="100%" height="100%" fill="white" /><text x="46" y="59" font-family="Arial" font-size="29" font-weight="700" fill="#20343D" data-entry-id="" data-role=""><tspan x="46" y="59.0">Revisiting the Figure 1 teal-chair case</tspan></text><text x="46" y="103" font-family="Arial" font-size="24" font-weight="700" fill="#20343D" data-entry-id="" data-role=""><tspan x="46" y="103.0">(a) Native candidate inclusion</tspan></text><text x="46" y="133" font-family="Arial" font-size="17" font-weight="400" fill="#536872" data-entry-id="" data-role=""><tspan x="46" y="133.0">WANDS q409 / product 24318 / GTE-ModernBERT / 42,993 fixed C0 competitors</tspan></text><text x="46" y="183" font-family="Arial" font-size="17" font-weight="700" fill="#20343D" data-entry-id="" data-role=""><tspan x="46" y="183.0">Order</tspan></text><text x="228" y="183" font-family="Arial" font-size="17" font-weight="700" fill="#20343D" data-entry-id="" data-role=""><tspan x="228" y="183.0">Native score - fixed Top-20 threshold</tspan></text><text x="860" y="183" font-family="Arial" font-size="17" font-weight="700" fill="#20343D" data-entry-id="" data-role=""><tspan x="860" y="183.0">Native score</tspan></text><text x="1052" y="183" font-family="Arial" font-size="17" font-weight="700" fill="#20343D" data-entry-id="" data-role=""><tspan x="1052" y="183.0">Saved rank</tspan></text><line x1="279.375" y1="208" x2="279.375" y2="620" stroke="#D7E1E5" stroke-width="1" /><text x="256.375" y="651" font-family="Arial" font-size="15" font-weight="400" fill="#536872" data-entry-id="" data-role=""><tspan x="256.375" y="651.0">-0.06</tspan></text><line x1="416.875" y1="208" x2="416.875" y2="620" stroke="#D7E1E5" stroke-width="1" /><text x="393.875" y="651" font-family="Arial" font-size="15" font-weight="400" fill="#536872" data-entry-id="" data-role=""><tspan x="393.875" y="651.0">-0.04</tspan></text><line x1="554.375" y1="208" x2="554.375" y2="620" stroke="#D7E1E5" stroke-width="1" /><text x="531.375" y="651" font-family="Arial" font-size="15" font-weight="400" fill="#536872" data-entry-id="" data-role=""><tspan x="531.375" y="651.0">-0.02</tspan></text><line x1="691.875" y1="208" x2="691.875" y2="620" stroke="#536872" stroke-width="2" /><text x="668.875" y="651" font-family="Arial" font-size="15" font-weight="400" fill="#536872" data-entry-id="" data-role=""><tspan x="668.875" y="651.0">+0.00</tspan></text><rect x="34" y="219" width="1125" height="43" fill="#EDF4F5" /><text x="48" y="247" font-family="Arial" font-size="21" font-weight="700" fill="#20343D" data-entry-id="" data-role=""><tspan x="48" y="247.0">C0 *</tspan></text><line x1="691.875" y1="239" x2="749.3276563286781" y2="239" stroke="#087E8B" stroke-width="2" /><circle cx="749.3276563286781" cy="239" r="7" fill="#087E8B" /><text x="860" y="245" font-family="Arial" font-size="19" font-weight="400" fill="#20343D" data-entry-id="" data-role=""><tspan x="860" y="245.0">0.697438896</tspan></text><text x="1052" y="247" font-family="Arial" font-size="21" font-weight="700" fill="#20343D" data-entry-id="C0" data-role="saved_rank"><tspan x="1052" y="247.0">11</tspan></text><text x="48" y="304" font-family="Arial" font-size="21" font-weight="400" fill="#20343D" data-entry-id="" data-role=""><tspan x="48" y="304.0">C1</tspan></text><line x1="691.875" y1="296" x2="421.12224221229553" y2="296" stroke="#AF4359" stroke-width="2" /><circle cx="421.12224221229553" cy="296" r="5" fill="#AF4359" /><text x="860" y="302" font-family="Arial" font-size="19" font-weight="400" fill="#20343D" data-entry-id="" data-role=""><tspan x="860" y="302.0">0.649699926</tspan></text><text x="1052" y="304" font-family="Arial" font-size="21" font-weight="400" fill="#20343D" data-entry-id="C1" data-role="saved_rank"><tspan x="1052" y="304.0">468</tspan></text><text x="48" y="361" font-family="Arial" font-size="21" font-weight="400" fill="#20343D" data-entry-id="" data-role=""><tspan x="48" y="361.0">C2s1</tspan></text><line x1="691.875" y1="353" x2="553.9567437767982" y2="353" stroke="#AF4359" stroke-width="2" /><circle cx="553.9567437767982" cy="353" r="5" fill="#AF4359" /><text x="860" y="359" font-family="Arial" font-size="19" font-weight="400" fill="#20343D" data-entry-id="" data-role=""><tspan x="860" y="359.0">0.669021308</tspan></text><text x="1052" y="361" font-family="Arial" font-size="21" font-weight="400" fill="#20343D" data-entry-id="C2s1" data-role="saved_rank"><tspan x="1052" y="361.0">123</tspan></text><text x="48" y="418" font-family="Arial" font-size="21" font-weight="400" fill="#20343D" data-entry-id="" data-role=""><tspan x="48" y="418.0">C2s2</tspan></text><line x1="691.875" y1="410" x2="468.1123462319374" y2="410" stroke="#AF4359" stroke-width="2" /><circle cx="468.1123462319374" cy="410" r="5" fill="#AF4359" /><text x="860" y="416" font-family="Arial" font-size="19" font-weight="400" fill="#20343D" data-entry-id="" data-role=""><tspan x="860" y="416.0">0.656534851</tspan></text><text x="1052" y="418" font-family="Arial" font-size="21" font-weight="400" fill="#20343D" data-entry-id="C2s2" data-role="saved_rank"><tspan x="1052" y="418.0">301</tspan></text><text x="48" y="475" font-family="Arial" font-size="21" font-weight="400" fill="#20343D" data-entry-id="" data-role=""><tspan x="48" y="475.0">C2s3</tspan></text><line x1="691.875" y1="467" x2="376.427326798439" y2="467" stroke="#AF4359" stroke-width="2" /><circle cx="376.427326798439" cy="467" r="5" fill="#AF4359" /><text x="860" y="473" font-family="Arial" font-size="19" font-weight="400" fill="#20343D" data-entry-id="" data-role=""><tspan x="860" y="473.0">0.643198848</tspan></text><text x="1052" y="475" font-family="Arial" font-size="21" font-weight="400" fill="#20343D" data-entry-id="C2s3" data-role="saved_rank"><tspan x="1052" y="475.0">677</tspan></text><text x="48" y="532" font-family="Arial" font-size="21" font-weight="400" fill="#20343D" data-entry-id="" data-role=""><tspan x="48" y="532.0">C2s4</tspan></text><line x1="691.875" y1="524" x2="428.71673077344894" y2="524" stroke="#AF4359" stroke-width="2" /><circle cx="428.71673077344894" cy="524" r="5" fill="#AF4359" /><text x="860" y="530" font-family="Arial" font-size="19" font-weight="400" fill="#20343D" data-entry-id="" data-role=""><tspan x="860" y="530.0">0.650804579</tspan></text><text x="1052" y="532" font-family="Arial" font-size="21" font-weight="400" fill="#20343D" data-entry-id="C2s4" data-role="saved_rank"><tspan x="1052" y="532.0">435</tspan></text><rect x="34" y="561" width="1125" height="43" fill="#EDF4F5" /><text x="48" y="589" font-family="Arial" font-size="21" font-weight="700" fill="#20343D" data-entry-id="" data-role=""><tspan x="48" y="589.0">C2s5 *</tspan></text><line x1="691.875" y1="581" x2="327.5837790966034" y2="581" stroke="#AF4359" stroke-width="2" /><circle cx="327.5837790966034" cy="581" r="7" fill="#AF4359" /><text x="860" y="587" font-family="Arial" font-size="19" font-weight="400" fill="#20343D" data-entry-id="" data-role=""><tspan x="860" y="587.0">0.636094332</tspan></text><text x="1052" y="589" font-family="Arial" font-size="21" font-weight="700" fill="#20343D" data-entry-id="C2s5" data-role="saved_rank"><tspan x="1052" y="589.0">939</tspan></text><text x="46" y="702" font-family="Arial" font-size="18" font-weight="700" fill="#20343D" data-entry-id="" data-role=""><tspan x="46" y="702.0">* Attribution endpoints: C0 -&gt; C2s5. Each row is a separate target-only replacement.</tspan></text><text x="46" y="736" font-family="Arial" font-size="17" font-weight="400" fill="#536872" data-entry-id="" data-role=""><tspan x="46" y="736.0">Fixed threshold = 0.689082145691; competitor ID/index 22752. Exact FP32 comparisons.</tspan></text><text x="46" y="766" font-family="Arial" font-size="17" font-weight="400" fill="#536872" data-entry-id="" data-role=""><tspan x="46" y="766.0">Saved ranks are authoritative; fresh forward and gradient diagnostic are reported separately.</tspan></text></svg>